<svg width="78" height="83" viewBox="0 0 78 83" fill="none" xmlns="http://www.w3.org/2000/svg">
<path d="M30.2137 28.6149L20.7082 31.3419C19.9434 31.5613 19.1227 31.468 18.4268 31.0823L6.40407 24.4201C4.95485 23.617 4.43104 21.7912 5.23411 20.3419L8.35019 14.7186C9.14764 13.2795 10.9554 12.7512 12.4023 13.5344L19.0214 17.1171C21.3594 18.3826 24.0662 16.2069 23.3332 13.6515L21.3625 6.78261C20.9056 5.19 21.8263 3.52854 23.4189 3.07164L29.5216 1.32085C31.1143 0.863951 32.7757 1.78463 33.2326 3.37724L37.0274 16.6048C37.251 17.3841 37.1497 18.2207 36.7465 18.9241L31.9891 27.2232C31.6009 27.9004 30.964 28.3997 30.2137 28.6149Z" fill="#F40051"/>
<path d="M37.7061 48.0494L28.7843 52.3148C28.0665 52.6579 27.5144 53.2722 27.2494 54.0225L22.6729 66.9834C22.1212 68.5457 22.9405 70.2595 24.5028 70.8111L30.565 72.9517C32.1163 73.4995 33.8195 72.6956 34.3826 71.1497L36.9588 64.0777C37.8687 61.5799 41.3376 61.4122 42.4842 63.8106L45.5664 70.2577C46.2811 71.7525 48.0722 72.3849 49.567 71.6703L55.2949 68.9319C56.7897 68.2172 57.4222 66.4261 56.7076 64.9313L50.772 52.516C50.4223 51.7846 49.7915 51.2258 49.0232 50.967L39.9579 47.913C39.2181 47.6638 38.4104 47.7127 37.7061 48.0494Z" fill="#F7D337"/>
<path d="M45.4299 27.7059L55.1791 29.3629C55.9635 29.4963 56.7687 29.3125 57.4177 28.8522L68.6282 20.8989C69.9796 19.9402 70.2979 18.0676 69.3392 16.7162L65.6193 11.4728C64.6673 10.1309 62.8121 9.80615 61.4609 10.7448L55.2794 15.0388C53.0961 16.5555 50.1648 14.6931 50.6103 12.0723L51.8078 5.02731C52.0854 3.39388 50.9863 1.84466 49.3529 1.56702L43.0938 0.503148C41.4603 0.225512 39.9111 1.3246 39.6335 2.95802L37.3275 16.5246C37.1917 17.3239 37.3851 18.1441 37.8637 18.7985L43.5113 26.5194C43.9721 27.1495 44.6604 27.5751 45.4299 27.7059Z" fill="#6BBCFF"/>
<path d="M48.6554 40.4136L49.8749 50.2271C49.973 51.0166 50.3808 51.7349 51.0085 52.2238L61.8523 60.6703C63.1594 61.6885 65.0444 61.4542 66.0625 60.1471L70.0132 55.0752C71.0242 53.7773 70.8012 51.9072 69.5133 50.8834L63.6216 46.1997C61.5406 44.5454 62.4803 41.202 65.1185 40.8742L72.2099 39.9929C73.8541 39.7886 75.0214 38.2901 74.817 36.6458L74.0341 30.3454C73.8297 28.7012 72.3312 27.534 70.687 27.7383L57.0309 29.4354C56.2263 29.5354 55.4965 29.9567 55.0076 30.6035L49.2393 38.2346C48.7686 38.8573 48.5591 39.6389 48.6554 40.4136Z" fill="#4AFCBE"/>
<path d="M28.1553 41.7955L27.7948 51.6779C27.7658 52.473 27.4221 53.2241 26.8393 53.7658L16.7721 63.1243C15.5586 64.2524 13.6604 64.1832 12.5323 62.9697L8.15508 58.261C7.03489 57.056 7.09423 55.1736 8.2881 54.0415L13.7497 48.8626C15.6787 47.0334 14.4515 43.7846 11.7948 43.6877L4.65357 43.4272C2.99782 43.3668 1.70453 41.9756 1.76494 40.3198L1.9964 33.9752C2.0568 32.3194 3.44802 31.0261 5.10377 31.0865L18.8558 31.5882C19.666 31.6178 20.4297 31.974 20.973 32.5757L27.3839 39.6756C27.907 40.255 28.1837 41.0154 28.1553 41.7955Z" fill="#B4E1FF"/>
</svg>
