<svg width="114" height="50" viewBox="0 0 114 50" fill="none" xmlns="http://www.w3.org/2000/svg">
<path d="M16.0909 20.2898L11.9269 21.4844C11.1621 21.7038 10.3415 21.6104 9.64556 21.2247L4.70302 18.4859C3.2538 17.6828 2.72999 15.857 3.53306 14.4078L4.00321 13.5593C4.76823 12.1787 6.50245 11.6719 7.89053 12.4232L8.02766 12.4975C10.2195 13.6838 12.7572 11.6441 12.0699 9.24843C11.6416 7.75534 12.5047 6.19771 13.9978 5.76937L14.9392 5.4993C16.5318 5.0424 18.1932 5.96308 18.6501 7.55569L20.2076 12.9846C20.4312 13.7639 20.3298 14.6005 19.9266 15.3039L17.8663 18.898C17.4781 19.5753 16.8413 20.0745 16.0909 20.2898Z" fill="#F40051"/>
<path d="M20.2441 31.0642L16.3358 32.9327C15.618 33.2759 15.0659 33.8902 14.801 34.6404L12.9196 39.9687C12.3679 41.531 13.1872 43.2447 14.7495 43.7964L15.6642 44.1193C17.1525 44.6449 18.7864 43.8736 19.3266 42.3906L19.38 42.2441C20.233 39.9023 23.4851 39.7451 24.5601 41.9936C25.23 43.395 26.9092 43.988 28.3106 43.318L29.1942 42.8956C30.689 42.1809 31.3214 40.3898 30.6068 38.895L28.1707 33.7995C27.821 33.068 27.1902 32.5093 26.4219 32.2504L22.4959 30.9278C21.7561 30.6786 20.9484 30.7275 20.2441 31.0642Z" fill="#F7D337"/>
<path d="M25.5264 19.7305L29.7971 20.4564C30.5815 20.5897 31.3867 20.406 32.0357 19.9456L36.6443 16.676C37.9957 15.7174 38.314 13.8447 37.3553 12.4934L36.794 11.7023C35.8807 10.415 34.1011 10.1034 32.8048 11.0039L32.6767 11.0928C30.6298 12.5147 27.8817 10.7687 28.2994 8.31165C28.5596 6.7803 27.5292 5.32789 25.9979 5.0676L25.0324 4.90349C23.399 4.62586 21.8497 5.72494 21.5721 7.35837L20.6257 12.9264C20.4898 13.7257 20.6833 14.5459 21.1619 15.2003L23.6077 18.5441C24.0686 19.1741 24.7568 19.5997 25.5264 19.7305Z" fill="#6BBCFF"/>
<path d="M26.8279 27.1717L27.3621 31.4706C27.4603 32.2602 27.868 32.9784 28.4957 33.4674L32.9536 36.9397C34.2607 37.9579 36.1457 37.7236 37.1639 36.4165L37.7599 35.6513C38.7298 34.4061 38.5159 32.612 37.2804 31.6298L37.1583 31.5328C35.2074 29.9819 36.0884 26.8475 38.5617 26.5401C40.1031 26.3486 41.1974 24.9437 41.0059 23.4022L40.8851 22.4304C40.6807 20.7862 39.1822 19.6189 37.538 19.8232L31.9332 20.5198C31.1286 20.6198 30.3988 21.0411 29.91 21.6878L27.4118 24.9927C26.9411 25.6154 26.7316 26.3971 26.8279 27.1717Z" fill="#4AFCBE"/>
<path d="M15.4654 27.9353L15.3074 32.2644C15.2784 33.0595 14.9348 33.8105 14.352 34.3523L10.2134 38.1996C8.99988 39.3276 7.10164 39.2584 5.97356 38.0449L5.31313 37.3344C4.23849 36.1784 4.29542 34.3726 5.44075 33.2865L5.55389 33.1792C7.36239 31.4644 6.21183 28.4186 3.72119 28.3277C2.16891 28.2711 0.956447 26.9668 1.01308 25.4145L1.04878 24.4358C1.10918 22.7801 2.5004 21.4868 4.15615 21.5472L9.80034 21.7531C10.6105 21.7827 11.3743 22.1389 11.9176 22.7406L14.694 25.8154C15.2171 26.3948 15.4938 27.1552 15.4654 27.9353Z" fill="#B4E1FF"/>
<path d="M59.3009 34.665C57.6209 34.665 56.1392 34.3967 54.8559 33.86C53.5725 33.3233 52.4875 32.6 51.6009 31.69C50.7142 30.7567 50.0375 29.7067 49.5709 28.54C49.1275 27.3733 48.9059 26.16 48.9059 24.9V24.165C48.9059 22.8583 49.1392 21.6217 49.6059 20.455C50.0959 19.265 50.7842 18.215 51.6709 17.305C52.5809 16.3717 53.6775 15.6483 54.9609 15.135C56.2442 14.5983 57.6909 14.33 59.3009 14.33C60.9109 14.33 62.3575 14.5983 63.6409 15.135C64.9242 15.6483 66.0092 16.3717 66.8959 17.305C67.8059 18.215 68.4942 19.265 68.9609 20.455C69.4275 21.6217 69.6609 22.8583 69.6609 24.165V24.9C69.6609 26.16 69.4275 27.3733 68.9609 28.54C68.5175 29.7067 67.8525 30.7567 66.9659 31.69C66.0792 32.6 64.9942 33.3233 63.7109 33.86C62.4275 34.3967 60.9575 34.665 59.3009 34.665ZM59.3009 30.5C60.4909 30.5 61.4942 30.2433 62.3109 29.73C63.1275 29.1933 63.7459 28.4817 64.1659 27.595C64.5859 26.685 64.7959 25.6583 64.7959 24.515C64.7959 23.3483 64.5742 22.3217 64.1309 21.435C63.7109 20.525 63.0809 19.8133 62.2409 19.3C61.4242 18.7633 60.4442 18.495 59.3009 18.495C58.1575 18.495 57.1659 18.7633 56.3259 19.3C55.5092 19.8133 54.8792 20.525 54.4359 21.435C53.9925 22.3217 53.7709 23.3483 53.7709 24.515C53.7709 25.6583 53.9809 26.685 54.4009 27.595C54.8442 28.4817 55.4742 29.1933 56.2909 29.73C57.1075 30.2433 58.1109 30.5 59.3009 30.5ZM72.8708 34V14.995H76.7208V23.045H76.6158C76.6158 20.315 77.1991 18.25 78.3658 16.85C79.5324 15.45 81.2474 14.75 83.5108 14.75H84.2108V18.985H82.8808C81.2474 18.985 79.9758 19.4283 79.0658 20.315C78.1791 21.1783 77.7358 22.4383 77.7358 24.095V34H72.8708ZM87.3255 34V14.995H92.1905V34H87.3255ZM84.6655 18.635V14.995H92.1905V18.635H84.6655ZM89.1105 12.72C88.1538 12.72 87.4422 12.475 86.9755 11.985C86.5322 11.4717 86.3105 10.83 86.3105 10.06C86.3105 9.29 86.5322 8.66 86.9755 8.17C87.4422 7.68 88.1538 7.435 89.1105 7.435C90.0672 7.435 90.7672 7.68 91.2105 8.17C91.6538 8.66 91.8755 9.29 91.8755 10.06C91.8755 10.83 91.6538 11.4717 91.2105 11.985C90.7672 12.475 90.0672 12.72 89.1105 12.72ZM103.642 34.595C101.029 34.595 98.9757 34.0467 97.4823 32.95C96.0123 31.83 95.2423 30.29 95.1723 28.33H99.5473C99.6173 28.9833 99.979 29.5783 100.632 30.115C101.286 30.6517 102.312 30.92 103.712 30.92C104.879 30.92 105.801 30.71 106.477 30.29C107.177 29.87 107.527 29.2983 107.527 28.575C107.527 27.945 107.259 27.4433 106.722 27.07C106.209 26.6967 105.322 26.4517 104.062 26.335L102.382 26.16C100.259 25.9267 98.6257 25.32 97.4823 24.34C96.339 23.36 95.7673 22.0533 95.7673 20.42C95.7673 19.1133 96.094 18.0167 96.7473 17.13C97.4007 16.2433 98.299 15.5783 99.4423 15.135C100.609 14.6683 101.939 14.435 103.432 14.435C105.766 14.435 107.656 14.9483 109.102 15.975C110.549 17.0017 111.307 18.5067 111.377 20.49H107.002C106.956 19.8367 106.629 19.2767 106.022 18.81C105.416 18.3433 104.541 18.11 103.397 18.11C102.371 18.11 101.577 18.3083 101.017 18.705C100.457 19.1017 100.177 19.615 100.177 20.245C100.177 20.8517 100.399 21.3183 100.842 21.645C101.309 21.9717 102.056 22.1933 103.082 22.31L104.762 22.485C107.002 22.7183 108.752 23.3367 110.012 24.34C111.296 25.3433 111.937 26.6967 111.937 28.4C111.937 29.66 111.587 30.7567 110.887 31.69C110.211 32.6 109.254 33.3117 108.017 33.825C106.781 34.3383 105.322 34.595 103.642 34.595Z" fill="#222222"/>
</svg>